<svg width="24.000000" height="24.000000" viewBox="0 0 24 24" fill="#7F879E" xmlns="http://www.w3.org/2000/svg" xmlns:xlink="http://www.w3.org/1999/xlink">
	<desc>
			Created with Pixso.
	</desc>
	<defs/>
	<rect id="Property 1=bold" width="24.000000" height="24.000000" fill="#FFFFFF" fill-opacity="0"/>
	<path id="Vector" d="M16.4399 3.1001C14.63 3.1001 13.01 3.97998 12 5.33008C10.99 3.97998 9.37 3.1001 7.56006 3.1001C4.48999 3.1001 2 5.6001 2 8.69019C2 9.88013 2.18994 10.98 2.52002 12C4.09998 17 8.96997 19.99 11.38 20.8101C11.72 20.9302 12.28 20.9302 12.62 20.8101C15.03 19.99 19.9 17 21.48 12C21.8101 10.98 22 9.88013 22 8.69019C22 5.6001 19.51 3.1001 16.4399 3.1001Z" fill="" fill-opacity="1.000000" fill-rule="nonzero"/>
	<g opacity="0.000000"/>
</svg>
