<svg width="20.000000" height="20.000000" viewBox="0 0 20 20" fill="none" xmlns="http://www.w3.org/2000/svg" xmlns:xlink="http://www.w3.org/1999/xlink">
	<desc>
			Created with Pixso.
	</desc>
	<defs/>
	<rect id="location" width="20.000000" height="20.000000" fill="#FFFFFF" fill-opacity="0"/>
	<path id="Vector" d="M10 11.1917C8.56396 11.1917 7.3999 10.0276 7.3999 8.5918C7.3999 7.15576 8.56396 5.9917 10 5.9917C11.436 5.9917 12.6001 7.15576 12.6001 8.5918C12.6001 10.0276 11.436 11.1917 10 11.1917Z" stroke="#7F879E" stroke-opacity="1.000000" stroke-width="1.200000"/>
	<path id="Vector" d="M16.9834 7.0835C17.9419 11.3167 15.3086 14.9001 13 17.1167C11.3252 18.7334 8.67529 18.7334 6.9917 17.1167C4.69189 14.9001 2.05859 11.3083 3.0166 7.0752C4.6582 -0.141602 15.3501 -0.133301 16.9834 7.0835Z" stroke="#7F879E" stroke-opacity="1.000000" stroke-width="1.200000"/>
	<g opacity="0.000000">
		<path id="Vector" d="M0 20L20 20L20 0L0 0L0 20ZM18.7998 1.19995L18.7998 18.8L1.2002 18.8L1.2002 1.19995L18.7998 1.19995Z" fill="#7F879E" fill-opacity="1.000000" fill-rule="evenodd"/>
	</g>
</svg>
