<svg width="24.000000" height="24.000000" viewBox="0 0 24 24" fill="none" xmlns="http://www.w3.org/2000/svg" xmlns:xlink="http://www.w3.org/1999/xlink">
	<desc>
			Created with Pixso.
	</desc>
	<defs/>
	<path d="M16.8301 15.6399C17.5 15.2 18.3799 15.6799 18.3799 16.48L18.3799 17.77C18.3799 19.0398 17.3901 20.3999 16.2002 20.7998L13.0103 21.8599C12.4502 22.0498 11.54 22.0498 10.9902 21.8599L7.80029 20.7998C6.6001 20.3999 5.62012 19.0398 5.62012 17.77L5.62012 16.47C5.62012 15.6799 6.5 15.2 7.16016 15.6299L9.22021 16.97C10.0103 17.5 11.0103 17.76 12.0103 17.76C13.0103 17.76 14.0103 17.5 14.8003 16.97L16.8301 15.6399Z" fill="#F3F3F3" fill-opacity="1.000000" fill-rule="nonzero"/>
	<path d="M19.98 6.45996L13.9902 2.53003C12.9102 1.82007 11.1299 1.82007 10.0498 2.53003L4.02979 6.45996C2.1001 7.70996 2.1001 10.54 4.02979 11.8L5.62988 12.8401L10.0498 15.72C11.1299 16.4302 12.9102 16.4302 13.9902 15.72L18.3799 12.8401L19.75 11.9399L19.75 15C19.75 15.4102 20.0898 15.75 20.5 15.75C20.9102 15.75 21.25 15.4102 21.25 15L21.25 10.0801C21.6499 8.79004 21.2402 7.29004 19.98 6.45996Z" fill="#FFFFFF" fill-opacity="1.000000" fill-rule="nonzero"/>
	<g opacity="0.000000">
		<path d="M24 24L0 24L0 0L24 0L24 24Z" fill="#F3F3F3" fill-opacity="1.000000" fill-rule="evenodd"/>
	</g>
</svg>
