<svg width="24.000000" height="24.000000" viewBox="0 0 24 24" fill="none" xmlns="http://www.w3.org/2000/svg" xmlns:xlink="http://www.w3.org/1999/xlink">
	<desc>
			Created with Pixso.
	</desc>
	<defs/>
	<rect id="teacher" width="24.000000" height="24.000000" fill="#FFFFFF" fill-opacity="0"/>
	<path id="Vector" d="M4.02979 6.46002C2.1001 7.72003 2.1001 10.54 4.02979 11.8L10.0498 15.73C11.1299 16.4401 12.9102 16.4401 13.9902 15.73L19.98 11.8C21.8999 10.54 21.8999 7.73004 19.98 6.47003L13.9902 2.54004C12.9102 1.82001 11.1299 1.82001 10.0498 2.53003L4.02979 6.46002Z" stroke="#7F879E" stroke-opacity="1.000000" stroke-width="1.500000" stroke-linejoin="round"/>
	<path id="Vector" d="M5.62988 13.08L5.62012 17.77C5.62012 19.04 6.6001 20.4 7.80029 20.7999L10.9902 21.86C11.54 22.04 12.4502 22.04 13.0103 21.86L16.2002 20.7999C17.3999 20.4 18.3799 19.04 18.3799 17.77L18.3799 13.1299" stroke="#7F879E" stroke-opacity="1.000000" stroke-width="1.500000" stroke-linejoin="round" stroke-linecap="round"/>
	<path id="Vector" d="M21.3999 15L21.3999 9" stroke="#7F879E" stroke-opacity="1.000000" stroke-width="1.500000" stroke-linejoin="round" stroke-linecap="round"/>
	<g opacity="0.000000">
		<path id="Vector" d="M0 24L0 0L24 0L24 24L0 24Z" stroke="#7F879E" stroke-opacity="1.000000" stroke-width="1.000000"/>
	</g>
</svg>
