<svg width="24.000000" height="24.000000" viewBox="0 0 24 24" fill="none" xmlns="http://www.w3.org/2000/svg" xmlns:xlink="http://www.w3.org/1999/xlink">
	<desc>
			Created with Pixso.
	</desc>
	<defs/>
	<rect id="Property 1=linear" width="24.000000" height="24.000000" fill="#FFFFFF" fill-opacity="0"/>
	<path id="Vector" d="M17.24 18.8599C16.4399 18.8599 15.6799 19.1697 15.1201 19.7297L13.4099 21.4197C12.6299 22.1897 11.3601 22.1897 10.5801 21.4197L8.87012 19.7297C8.31006 19.1697 7.54004 18.8599 6.75 18.8599L6 18.8599C4.34009 18.8599 3 17.5298 3 15.8896L3 4.97974C3 3.33984 4.34009 2.00977 6 2.00977L18 2.00977C19.6599 2.00977 21 3.33984 21 4.97974L21 15.8896C21 17.5198 19.6599 18.8599 18 18.8599L17.24 18.8599Z" stroke="#7F879E" stroke-opacity="1.000000" stroke-width="1.500000" stroke-linejoin="round"/>
	<path id="Vector" d="M11.72 14.96C10.4199 14.51 7.5 12.6599 7.5 9.51001C7.5 8.12012 8.62012 7 10 7C10.8201 7 11.54 7.38989 12 8C12.46 7.38989 13.1799 7 14 7C15.3799 7 16.5 8.12012 16.5 9.51001C16.49 12.6599 13.5801 14.51 12.28 14.96C12.1299 15.01 11.8799 15.01 11.72 14.96Z" stroke="#7F879E" stroke-opacity="1.000000" stroke-width="1.500000" stroke-linejoin="round"/>
	<g opacity="0.000000"/>
</svg>
