<svg width="24.000000" height="24.000000" viewBox="0 0 24 24" fill="none" xmlns="http://www.w3.org/2000/svg" xmlns:xlink="http://www.w3.org/1999/xlink">
	<desc>
			Created with Pixso.
	</desc>
	<defs/>
	<g opacity="0.000000"/>
	<path d="M18 2L6 2C4.34009 2 3 3.33008 3 4.96997L3 15.8799C3 17.52 4.34009 18.8501 6 18.8501L6.76001 18.8501C7.56006 18.8501 8.32007 19.1599 8.87988 19.72L10.5901 21.4099C11.3701 22.1799 12.6399 22.1799 13.4199 21.4099L15.1299 19.72C15.6899 19.1599 16.46 18.8501 17.25 18.8501L18 18.8501C19.6599 18.8501 21 17.52 21 15.8799L21 4.96997C21 3.33008 19.6599 2 18 2ZM12.28 14.96C12.1299 15.01 11.8799 15.01 11.72 14.96C10.4199 14.51 7.5 12.6599 7.5 9.51001C7.51001 8.12012 8.62012 7 10 7C10.8201 7 11.54 7.38989 12 8C12.46 7.38989 13.1799 7 14 7C15.3799 7 16.5 8.12012 16.5 9.51001C16.49 12.6599 13.5801 14.51 12.28 14.96Z" fill="#FFFFFF" fill-opacity="1.000000" fill-rule="nonzero"/>
</svg>
