<svg width="24.000000" height="24.000000" viewBox="0 0 24 24" fill="none" xmlns="http://www.w3.org/2000/svg" xmlns:xlink="http://www.w3.org/1999/xlink">
	<desc>
			Created with Pixso.
	</desc>
	<defs/>
	<path d="M7 10C9 10 10 9 10 7L10 5C10 3 9 2 7 2L5 2C3 2 2 3 2 5L2 7C2 9 3 10 5 10L7 10Z" stroke="#7F879E" stroke-opacity="1.000000" stroke-width="1.500000" stroke-linejoin="round"/>
	<path d="M19 10C21 10 22 9 22 7L22 5C22 3 21 2 19 2L17 2C15 2 14 3 14 5L14 7C14 9 15 10 17 10L19 10Z" stroke="#7F879E" stroke-opacity="1.000000" stroke-width="1.500000" stroke-linejoin="round"/>
	<path d="M19 22C21 22 22 21 22 19L22 17C22 15 21 14 19 14L17 14C15 14 14 15 14 17L14 19C14 21 15 22 17 22L19 22Z" stroke="#7F879E" stroke-opacity="1.000000" stroke-width="1.500000" stroke-linejoin="round"/>
	<path d="M7 22C9 22 10 21 10 19L10 17C10 15 9 14 7 14L5 14C3 14 2 15 2 17L2 19C2 21 3 22 5 22L7 22Z" stroke="#7F879E" stroke-opacity="1.000000" stroke-width="1.500000" stroke-linejoin="round"/>
	<g opacity="0.000000"/>
</svg>
