<svg width="24.000000" height="24.000000" viewBox="0 0 24 24" fill="none" xmlns="http://www.w3.org/2000/svg" xmlns:xlink="http://www.w3.org/1999/xlink">
	<desc>
			Created with Pixso.
	</desc>
	<defs/>
	<path d="M7.24023 2L5.33984 2C3.1499 2 2 3.1499 2 5.33008L2 7.22998C2 9.41016 3.1499 10.5601 5.33008 10.5601L7.22998 10.5601C9.41016 10.5601 10.5601 9.41016 10.5601 7.22998L10.5601 5.33008C10.5698 3.1499 9.41992 2 7.24023 2Z" fill="#FFFFFF" fill-opacity="1.000000" fill-rule="nonzero"/>
	<path d="M18.6699 2L16.77 2C14.5898 2 13.4399 3.1499 13.4399 5.33008L13.4399 7.22998C13.4399 9.41016 14.5898 10.5601 16.77 10.5601L18.6699 10.5601C20.8501 10.5601 22 9.41016 22 7.22998L22 5.33008C22 3.1499 20.8501 2 18.6699 2Z" fill="#FFFFFF" fill-opacity="1.000000" fill-rule="nonzero"/>
	<path d="M18.6699 13.4302L16.77 13.4302C14.5898 13.4302 13.4399 14.5801 13.4399 16.7603L13.4399 18.6602C13.4399 20.8403 14.5898 21.9902 16.77 21.9902L18.6699 21.9902C20.8501 21.9902 22 20.8403 22 18.6602L22 16.7603C22 14.5801 20.8501 13.4302 18.6699 13.4302Z" fill="#FFFFFF" fill-opacity="1.000000" fill-rule="nonzero"/>
	<path d="M7.24023 13.4302L5.33984 13.4302C3.1499 13.4302 2 14.5801 2 16.7603L2 18.6602C2 20.8501 3.1499 22 5.33008 22L7.22998 22C9.41016 22 10.5601 20.8501 10.5601 18.6704L10.5601 16.77C10.5698 14.5801 9.41992 13.4302 7.24023 13.4302Z" fill="#FFFFFF" fill-opacity="1.000000" fill-rule="nonzero"/>
	<g opacity="0.000000"/>
</svg>
