<svg width="24.000000" height="24.000000" viewBox="0 0 24 24" fill="none" xmlns="http://www.w3.org/2000/svg" xmlns:xlink="http://www.w3.org/1999/xlink">
	<desc>
			Created with Pixso.
	</desc>
	<defs/>
	<rect id="discover" width="24.000000" height="24.000000" fill="#FFFFFF" fill-opacity="0"/>
	<path id="Vector" d="M22 12C22 6.5 17.5 2 12 2C6.5 2 2 6.5 2 12C2 17.5 6.5 22 12 22C17.5 22 22 17.5 22 12Z" stroke="#7F879E" stroke-opacity="1.000000" stroke-width="1.500000"/>
	<path id="Vector" d="M8 13.5C8 16 8 16 10.5 16C13.52 16 16 13.52 16 10.5C16 7.92432 16 8 13.5 8C10.4702 8 8 10.4805 8 13.5Z" stroke="#7F879E" stroke-opacity="1.000000" stroke-width="1.500000" stroke-linejoin="round"/>
	<g opacity="0.000000">
		<path id="Vector" d="M0 24L24 24L24 0L0 0L0 24ZM23 1L23 23L1 23L1 1L23 1Z" fill="#7F879E" fill-opacity="1.000000" fill-rule="evenodd"/>
	</g>
</svg>
