<svg width="24.000000" height="24.000000" viewBox="0 0 24 24" fill="none" xmlns="http://www.w3.org/2000/svg" xmlns:xlink="http://www.w3.org/1999/xlink">
	<desc>
			Created with Pixso.
	</desc>
	<defs/>
	<rect id="Property 1=bold" width="24.000000" height="24.000000" fill="#FFFFFF" fill-opacity="0"/>
	<g opacity="0.000000"/>
	<path id="Vector" d="M21.25 18.4702L19.6001 18.8601C19.23 18.9502 18.9399 19.2302 18.8601 19.6001L18.51 21.0701C18.3201 21.8701 17.3 22.1201 16.77 21.49L13.78 18.05C13.54 17.77 13.6699 17.3301 14.03 17.24C15.8 16.8101 17.3899 15.8201 18.5601 14.4102C18.75 14.1802 19.0901 14.1501 19.3 14.3601L21.52 16.5801C22.28 17.3401 22.01 18.29 21.25 18.4702Z" fill="#FFFFFF" fill-opacity="1.000000" fill-rule="nonzero"/>
	<path id="Vector" d="M2.7002 18.4702L4.3501 18.8601C4.72021 18.9502 5.01025 19.2302 5.09009 19.6001L5.44019 21.0701C5.63013 21.8701 6.65015 22.1201 7.18018 21.49L10.1702 18.05C10.4102 17.77 10.2803 17.3301 9.92017 17.24C8.15015 16.8101 6.56006 15.8201 5.39014 14.4102C5.2002 14.1802 4.86011 14.1501 4.65015 14.3601L2.43018 16.5801C1.67017 17.3401 1.94019 18.29 2.7002 18.4702Z" fill="#FFFFFF" fill-opacity="1.000000" fill-rule="nonzero"/>
	<path id="Vector" d="M12 2C8.12988 2 5 5.12988 5 9C5 10.45 5.42993 11.78 6.16992 12.8899C7.25 14.49 8.95996 15.6201 10.95 15.9099C11.29 15.97 11.6399 16 12 16C12.3601 16 12.71 15.97 13.05 15.9099C15.04 15.6201 16.75 14.49 17.8301 12.8899C18.5701 11.78 19 10.45 19 9C19 5.12988 15.8701 2 12 2ZM15.0601 8.78003L14.23 9.61011C14.0901 9.75 14.01 10.02 14.0601 10.22L14.3 11.25C14.49 12.0601 14.0601 12.3799 13.3401 11.95L12.3401 11.3601C12.1599 11.25 11.8601 11.25 11.6799 11.3601L10.6799 11.95C9.95996 12.3701 9.53003 12.0601 9.71997 11.25L9.95996 10.22C10 10.03 9.92993 9.75 9.79004 9.61011L8.93994 8.78003C8.44995 8.29004 8.61011 7.80005 9.29004 7.68994L10.3601 7.51001C10.54 7.47998 10.75 7.32007 10.8301 7.15991L11.4199 5.97998C11.74 5.34009 12.26 5.34009 12.5801 5.97998L13.1699 7.15991C13.25 7.32007 13.46 7.47998 13.6499 7.51001L14.72 7.68994C15.3899 7.80005 15.55 8.29004 15.0601 8.78003Z" fill="#FFFFFF" fill-opacity="1.000000" fill-rule="nonzero"/>
</svg>
