<svg width="24.000000" height="24.000000" viewBox="0 0 24 24" fill="none" xmlns="http://www.w3.org/2000/svg" xmlns:xlink="http://www.w3.org/1999/xlink">
	<desc>
			Created with Pixso.
	</desc>
	<defs/>
	<path d="M17.8301 12.8901C16.75 14.49 15.04 15.6201 13.05 15.9099C12.71 15.97 12.3601 16 12 16C11.6399 16 11.29 15.97 10.95 15.9099C8.95996 15.6201 7.25 14.49 6.16992 12.8901C5.42993 11.78 5 10.45 5 9C5 5.12988 8.12988 2 12 2C15.8701 2 19 5.12988 19 9C19 10.45 18.5701 11.78 17.8301 12.8901Z" stroke="#7F879E" stroke-opacity="1.000000" stroke-width="1.500000" stroke-linejoin="round"/>
	<path d="M19.6001 18.8599C19.23 18.95 18.9402 19.23 18.8601 19.5999L18.51 21.0698C18.3201 21.8699 17.3 22.1099 16.77 21.48L12 16L7.22998 21.49C6.7002 22.1199 5.68018 21.8799 5.48999 21.0798L5.14014 19.6099C5.05005 19.24 4.76001 18.95 4.40015 18.8699L2.75 18.48C1.98999 18.2998 1.71997 17.3499 2.27002 16.7998L6.17017 12.8999C7.25 14.5 8.95996 15.6299 10.9502 15.9199C11.29 15.98 11.6401 16.01 12 16.01C12.3601 16.01 12.71 15.98 13.05 15.9199C15.04 15.6299 16.75 14.5 17.8301 12.8999L21.73 16.7998C22.28 17.3398 22.01 18.2898 21.25 18.47L19.6001 18.8599Z" stroke="#7F879E" stroke-opacity="1.000000" stroke-width="1.500000" stroke-linejoin="round"/>
	<path d="M13.1699 7.15991C13.25 7.32007 13.46 7.47998 13.6499 7.51001L14.72 7.68994C15.3999 7.80005 15.5601 8.30005 15.0701 8.79004L14.24 9.61987C14.0999 9.76001 14.02 10.03 14.0701 10.23L14.3101 11.26C14.5 12.0701 14.0701 12.3899 13.3499 11.96L12.3499 11.3699C12.1699 11.26 11.8699 11.26 11.6899 11.3699L10.6899 11.96C9.96997 12.3799 9.54004 12.0701 9.72998 11.26L9.96997 10.23C10.01 10.04 9.93994 9.76001 9.80005 9.61987L8.96997 8.79004C8.47998 8.30005 8.63989 7.81006 9.32007 7.68994L10.3899 7.51001C10.5701 7.47998 10.78 7.32007 10.8599 7.15991L11.45 5.97998C11.74 5.34009 12.26 5.34009 12.5801 5.97998L13.1699 7.15991Z" stroke="#7F879E" stroke-opacity="1.000000" stroke-width="1.500000" stroke-linejoin="round"/>
	<g opacity="0.000000"/>
</svg>
